<svg width="367" height="280" viewBox="0 0 367 280" fill="none" xmlns="http://www.w3.org/2000/svg">
<path d="M13.5399 279.414L0.0570541 113.003C-0.282369 108.765 0.900607 104.543 3.39365 101.099L71.1387 7.38929C72.9496 4.88458 75.3795 2.89331 78.1908 1.61031C81.002 0.327303 84.0981 -0.203435 87.1756 0.0699774L318.951 20.6351C322.619 20.9598 326.098 22.4133 328.91 24.7951C331.719 27.1772 333.723 30.3711 334.646 33.9385L366.428 156.576C367.211 159.591 367.19 162.758 366.368 165.762L335.146 280L13.5399 279.414Z" fill="#F4F4F4"/>
<path opacity="0.2" fill-rule="evenodd" clip-rule="evenodd" d="M168.536 58L131 156.125L242 157L205.268 58H168.536Z" fill="#D2B0F4"/>
<path d="M347.463 279.993H2.53544C2.46964 280.006 2.40203 280 2.33775 279.98C2.27317 279.964 2.21345 279.927 2.16251 279.881C2.11158 279.835 2.07065 279.776 2.04275 279.71C2.01456 279.645 2 279.572 2 279.5C2 279.428 2.01456 279.355 2.04275 279.29C2.07065 279.224 2.11158 279.165 2.16251 279.119C2.21345 279.073 2.27317 279.036 2.33775 279.02C2.40203 279 2.46964 278.994 2.53544 279.007H347.463C347.53 278.994 347.597 279 347.66 279.02C347.727 279.036 347.785 279.073 347.836 279.119C347.888 279.165 347.927 279.224 347.958 279.29C347.985 279.355 348 279.428 348 279.5C348 279.572 347.985 279.645 347.958 279.71C347.927 279.776 347.888 279.835 347.836 279.881C347.785 279.927 347.727 279.964 347.66 279.98C347.597 280 347.53 280.006 347.463 279.993Z" fill="#B2B6BB"/>
<path d="M113 55H44V147H113V55Z" fill="#B2B6BB"/>
<path opacity="0.1" d="M113 55H44V147H113V55Z" fill="black"/>
<path d="M111 55H43V147H111V55Z" fill="#B2B6BB"/>
<path d="M107 60H46V147H107V60Z" fill="#F4F4F4"/>
<path opacity="0.7" d="M46 89.8337L65.534 60H83L46 114V89.8337Z" fill="white"/>
<path opacity="0.7" d="M46 146.843V127.248L93.8539 60L107 60.003V72.0209L52.4367 147L46 146.843Z" fill="white"/>
<path opacity="0.7" d="M68 146.812L107 93V105.332L76.6758 147L68 146.812Z" fill="white"/>
<path d="M115 147H37V151H115V147Z" fill="#B2B6BB"/>
<path d="M77 58H75V149H77V58Z" fill="#B2B6BB"/>
<path d="M110 80H43V81H110V80Z" fill="#B2B6BB"/>
<path d="M110 101H43V103H110V101Z" fill="#B2B6BB"/>
<path d="M110 122H43V124H110V122Z" fill="#B2B6BB"/>
<path d="M111 146H42V147H111V146Z" fill="#B2B6BB"/>
<path opacity="0.1" d="M111 146H42V147H111V146Z" fill="black"/>
<path d="M186.5 63C189.537 63 192 60.5375 192 57.5C192 54.4625 189.537 52 186.5 52C183.463 52 181 54.4625 181 57.5C181 60.5375 183.463 63 186.5 63Z" fill="white"/>
<path fill-rule="evenodd" clip-rule="evenodd" d="M192.526 46.7773C190.002 45.7368 189.686 42 189.686 42H183.314C183.314 42 183.011 45.7274 180.474 46.7773C179.242 47.2836 176.481 47.8893 173.859 48.9983C172.125 49.7316 170.643 50.975 169.6 52.5716C168.557 54.1679 168 56.0453 168 57.9658V58H205V57.9658C205 56.0453 204.443 54.1679 203.4 52.5716C202.357 50.975 200.875 49.7316 199.141 48.9983C196.519 47.8893 193.758 47.2867 192.526 46.7773Z" fill="#868A91"/>
<path d="M189 40H185V42H189V40Z" fill="#61656D"/>
<path d="M189 40H185V42H189V40Z" fill="#61656D"/>
<path opacity="0.2" fill-rule="evenodd" clip-rule="evenodd" d="M204.986 57.9658C204.985 56.0453 204.455 54.1679 203.463 52.5716C202.471 50.975 201.06 49.7316 199.41 48.9983C196.916 47.8893 194.289 47.2867 193.116 46.7773C190.714 45.7368 190.414 42 190.414 42H189.121L189.011 42.0217C189.011 42.0217 188.63 46.6158 192.383 48.5323C194.023 49.3679 197.231 50.9117 198.374 52.4275C199.419 53.816 199.546 55.6424 199.546 58H205L204.986 57.9658Z" fill="black"/>
<path d="M83.732 279H248.428L270.938 157.399C271.038 156.862 271.016 156.309 270.88 155.781C270.741 155.252 270.486 154.761 270.138 154.341C269.786 153.921 269.347 153.583 268.853 153.351C268.356 153.12 267.817 153 267.268 153H102.572L80.0627 274.598C79.9628 275.136 79.9824 275.69 80.1206 276.219C80.2588 276.748 80.5121 277.238 80.8623 277.658C81.2126 278.078 81.6513 278.417 82.1473 278.649C82.6434 278.879 83.1845 279 83.732 279Z" fill="#D2B0F4"/>
<path opacity="0.2" d="M83.732 279H248.428L270.938 157.399C271.038 156.862 271.016 156.309 270.88 155.781C270.741 155.252 270.486 154.761 270.138 154.341C269.786 153.921 269.347 153.583 268.853 153.351C268.356 153.12 267.817 153 267.268 153H102.572L80.0627 274.598C79.9628 275.136 79.9824 275.69 80.1206 276.219C80.2588 276.748 80.5121 277.238 80.8623 277.658C81.2126 278.078 81.6513 278.417 82.1473 278.649C82.6434 278.879 83.1845 279 83.732 279Z" fill="black"/>
<path d="M248 279H82.3941C81.482 279 80.6017 278.665 79.9195 278.053C79.2376 277.445 78.8017 276.605 78.6943 275.695L65.0264 160.191C64.9637 159.665 65.013 159.132 65.1704 158.626C65.328 158.121 65.59 157.655 65.9397 157.259C66.2894 156.863 66.7184 156.546 67.1988 156.329C67.6792 156.112 68.1995 156 68.7262 156H230.136C231.048 156 231.929 156.336 232.611 156.945C233.293 157.554 233.729 158.394 233.836 159.305L248 279Z" fill="#D2B0F4"/>
<path d="M102 153L104.63 141.006C104.816 140.155 105.297 139.393 105.994 138.845C106.691 138.298 107.56 138 108.456 138H133.987C134.854 138 135.697 138.279 136.383 138.793C137.069 139.307 137.559 140.028 137.776 140.842L141 152.919L102 153Z" fill="#D2B0F4"/>
<path opacity="0.2" d="M102 153L104.63 141.006C104.816 140.155 105.297 139.393 105.994 138.845C106.691 138.298 107.56 138 108.456 138H133.987C134.854 138 135.697 138.279 136.383 138.793C137.069 139.307 137.559 140.028 137.776 140.842L141 152.919L102 153Z" fill="black"/>
<g opacity="0.4">
<path opacity="0.4" d="M175.508 204.834L168.398 197.724L154.175 211.947L139.955 197.724L132.848 204.834L147.068 219.054L132.845 233.274L139.955 240.384L154.175 226.164L168.398 240.39L175.508 233.289L161.282 219.06L175.508 204.834Z" fill="#3F4249"/>
</g>
<path d="M292 220.357L279.392 220L278.107 261.865C278.067 263.029 277.754 264.169 277.195 265.191L272 274.84L277.715 275L285.492 263.836C285.492 263.836 291.957 231.614 292 220.357Z" fill="#FC9D9D"/>
<path opacity="0.15" d="M292 220.107L288.229 220L288.4 222.754C288.235 228.591 288.369 234.43 287.318 240.174L284.138 258.708L283.453 261.839C283.151 263.223 282.559 264.523 281.718 265.662L277.755 271.054C277.057 272.012 276.124 272.777 275.048 273.276C274.082 273.72 273.055 274.011 272 274.142L275.688 276L285.51 264.006C285.51 264.006 291.912 231.611 292 220.107Z" fill="black"/>
<path d="M307.884 262.353C307.621 259.868 304.36 229.352 301.173 219L289.053 220.099L289.005 221.44C288.98 222.053 289.053 222.666 289.215 223.257L300.389 263.486C300.553 264.076 300.514 264.706 300.282 265.272L296.271 275L300.764 274.255L309 264.597L307.884 262.353Z" fill="#FC9D9D"/>
<path d="M308.123 190.27C311.422 167.063 304.35 152.199 304.35 152.199H291.367H291.167H290.969L277.715 152C277.715 152 271.833 166.027 273.208 189.356C273.886 200.884 274.555 209.46 275.603 219.559L275.671 220.197L289.135 220.552H289.533L306.53 221L306.628 220.368C306.354 215.595 306.385 202.5 308.123 190.27Z" fill="#21252B"/>
<path d="M228.571 152C228.35 151.897 228.168 151.729 228.05 151.522C228.018 151.467 228.001 151.405 228 151.342C227.999 151.279 228.017 151.217 228.05 151.163C228.08 151.11 228.125 151.066 228.18 151.037C228.235 151.008 228.298 150.996 228.36 151.001L231 151.163L228.571 152Z" fill="#F39494"/>
<path d="M230.985 151L230.151 150.907C229.827 150.572 230.111 150.026 230.203 150.001C230.294 149.976 232 150.383 232 150.383L230.985 151Z" fill="#F39494"/>
<path opacity="0.15" d="M231 151.092L228.326 152L228 151.636C228 151.636 230.102 151.068 230.215 151L231 151.092Z" fill="black"/>
<path d="M274.448 105.68C274.38 106.315 274.484 106.957 274.747 107.537C275.076 108.318 275.695 108.936 276.47 109.254C277.241 109.573 278.109 109.568 278.88 109.24C279.236 109.099 279.628 109.07 279.999 109.157C280.373 109.244 280.714 109.442 280.974 109.726C281.479 110.267 282.122 110.657 282.831 110.855C283.54 111.052 284.287 111.048 284.993 110.845C285.558 110.668 286.082 110.373 286.527 109.98C286.976 109.586 287.338 109.102 287.589 108.559C287.843 108.016 287.981 107.425 287.999 106.824C288.014 106.224 287.909 105.626 287.685 105.069C287.359 104.204 286.758 103.473 285.977 102.991C285.199 102.509 284.284 102.303 283.378 102.406C282.771 102.484 282.188 102.701 281.674 103.041C281.159 103.38 280.729 103.834 280.412 104.367C280.124 103.863 279.712 103.444 279.215 103.151C279.667 102.606 279.981 101.957 280.13 101.26C280.28 100.564 280.259 99.8406 280.074 99.1536C279.936 98.6013 279.688 98.0834 279.347 97.6316C279.003 97.1799 278.575 96.8039 278.085 96.527C277.594 96.2501 277.053 96.0777 276.497 96.0209C275.938 95.964 275.375 96.0236 274.84 96.196C274.116 96.4616 273.476 96.92 272.986 97.5234C272.495 98.1268 272.172 98.8527 272.053 99.6257C271.933 100.399 272.017 101.191 272.301 101.918C272.585 102.646 273.055 103.283 273.665 103.762C273.949 103.985 274.17 104.279 274.308 104.616C274.442 104.952 274.493 105.319 274.448 105.68Z" fill="#21252B"/>
<path opacity="0.15" d="M232 150.072L230.266 151L230 150.922L231.668 150L232 150.072Z" fill="black"/>
<path d="M284.627 109.614L284.251 99.5308L291.895 99L292.691 101.879L293.683 109.838C293.728 110.194 293.879 110.528 294.117 110.794C294.358 111.06 294.672 111.246 295.019 111.327L298 112.025C298 112.025 296.824 119.845 289.635 119.969C289.315 119.969 288.995 119.985 288.679 119.997C287.024 120.045 281.263 119.657 280 112.025L283.217 111.4C283.627 111.321 283.991 111.098 284.251 110.77C284.51 110.442 284.642 110.032 284.627 109.614Z" fill="#FC9D9D"/>
<path opacity="0.15" d="M285 107.892C285.364 107.987 285.74 108.019 286.113 107.989C287.268 107.891 288.361 107.388 289.22 106.559C290.194 106.372 291.117 105.961 291.928 105.352C291.965 105.321 291.99 105.275 291.999 105.225C292.004 105.174 291.993 105.123 291.965 105.081C291.951 105.06 291.934 105.042 291.914 105.029C291.894 105.015 291.871 105.006 291.849 105.002C291.826 104.998 291.804 104.999 291.778 105.006C291.756 105.012 291.736 105.023 291.716 105.039C291.092 105.505 290.392 105.843 289.652 106.034C289.598 106.034 289.547 106.073 289.493 106.076C289.332 106.116 289.211 106.125 289.061 106.167H289.008C288.917 106.2 288.821 106.218 288.725 106.218L287.991 106.269C286.983 106.314 285.98 106.066 285.093 105.552L285 107.892Z" fill="black"/>
<path d="M279.613 105L285 101.689L283.317 88L278.561 88.9614L276.428 91.0513C276.428 91.0513 276.608 91.8186 276.673 92.2694C276.914 94.001 275.559 95.0072 274 96.0342L279.613 105Z" fill="#21252B"/>
<path d="M267.556 125L263.013 138.798C263.013 138.798 241.258 150.695 241.132 150.571C236.292 150.833 234.604 149.857 234.342 149.897C234.079 149.936 227.222 151.719 225.345 152.36C224.925 152.502 224.867 153.125 225.29 153.144C225.712 153.162 227.357 152.963 228.524 152.863C228.141 153.406 227.357 154.752 226.916 155.414C226.878 155.477 226.855 155.547 226.848 155.619C226.839 155.694 226.848 155.769 226.876 155.839C226.903 155.907 226.945 155.967 226.999 156.017C227.052 156.064 227.115 156.098 227.185 156.116C227.802 156.276 229.752 153.987 229.789 153.848C229.826 153.71 232.184 153.186 232.471 153.104C232.758 153.023 234.425 153.406 234.653 153.969C234.882 154.532 233.16 155.634 232.777 155.815C232.394 155.996 232.413 156.439 232.453 156.74C232.469 156.817 232.513 156.886 232.576 156.936C232.638 156.983 232.717 157.006 232.796 156.999C233.782 156.777 234.722 156.389 235.573 155.854C236.302 155.372 237.66 155.053 238.255 154.972C239.509 154.787 240.774 154.694 242.042 154.695L266.71 147.412C267.398 147.412 268.068 147.206 268.63 146.821C269.192 146.436 269.618 145.891 269.852 145.261L276 127.825L267.556 125Z" fill="#FC9D9D"/>
<path d="M280.308 99.6966L280.004 91.1819C279.983 90.8172 280.038 90.452 280.165 90.1076C280.293 89.7631 280.487 89.4462 280.743 89.1745C280.995 88.9032 281.301 88.6824 281.645 88.5251C281.988 88.3678 282.359 88.2768 282.738 88.2578L291.374 88.0005C291.665 87.9944 291.957 88.0441 292.23 88.1464C292.504 88.249 292.756 88.4026 292.966 88.5979C293.178 88.7935 293.348 89.0274 293.464 89.2862C293.582 89.545 293.646 89.8236 293.652 90.1058L293.995 99.2697C294.132 102.863 291.307 105.878 287.662 105.995H287.155C283.525 106.135 280.472 103.29 280.308 99.6966Z" fill="#FC9D9D"/>
<path d="M288.998 97.4499C288.988 97.3522 288.949 97.2597 288.888 97.1837C288.826 97.1075 288.743 97.0516 288.649 97.0224C288.555 96.9933 288.455 96.9926 288.36 97.0201C288.266 97.0477 288.181 97.1024 288.119 97.1773C288.055 97.2524 288.015 97.3443 288.004 97.4418C287.991 97.5395 288.01 97.6382 288.055 97.7257C288.098 97.8133 288.168 97.8861 288.253 97.9346C288.338 97.9831 288.436 98.0055 288.534 97.9989C288.668 97.9876 288.794 97.9233 288.879 97.8203C288.966 97.7176 289.009 97.5844 288.998 97.4499Z" fill="#21252B"/>
<path d="M288.998 97.4608C288.998 97.3968 288.977 97.3338 288.947 97.2758C288.918 97.2179 288.888 97.1659 288.838 97.1229C288.788 97.0799 288.728 97.0479 288.668 97.0269C288.608 97.0059 288.548 96.9969 288.478 97.0009C288.378 97.0049 288.288 97.0389 288.208 97.0989C288.128 97.1579 288.058 97.2399 288.028 97.3338C287.998 97.4278 287.988 97.5288 288.018 97.6257C288.038 97.7217 288.098 97.8087 288.168 97.8747C288.248 97.9406 288.338 97.9826 288.438 97.9956C288.538 98.0086 288.638 97.9926 288.728 97.9476C288.818 97.9037 288.888 97.8327 288.937 97.7467C288.987 97.6597 289.007 97.5608 288.998 97.4608Z" fill="white"/>
<path d="M283.997 97.904C283.975 97.7083 283.903 97.5227 283.775 97.37C283.652 97.2172 283.486 97.1044 283.298 97.0457C283.111 96.987 282.911 96.9849 282.724 97.0393C282.532 97.0942 282.366 97.2032 282.238 97.3534C282.11 97.5032 282.03 97.687 282.008 97.8823C281.983 98.0776 282.017 98.2751 282.106 98.4508C282.196 98.6261 282.332 98.7717 282.506 98.8691C282.677 98.9661 282.873 99.0112 283.069 98.9976C283.337 98.9751 283.584 98.847 283.758 98.6423C283.933 98.4372 284.018 98.1721 283.997 97.904Z" fill="#21252B"/>
<path opacity="0.15" d="M229 153L229.084 152.862C229.214 152.683 229.414 152.552 229.646 152.491L232 152L229.726 152.668C229.512 152.729 229.324 152.844 229.185 153H229Z" fill="black"/>
<g opacity="0.15">
<path opacity="0.15" d="M285.203 99.2544C285.203 99.0281 285.294 98.8112 285.455 98.6502C285.613 98.4891 285.828 98.3969 286.056 98.3929C286.107 98.4066 286.156 98.4357 286.189 98.477C286.226 98.5182 286.247 98.5695 286.253 98.6235C286.241 98.6763 286.213 98.7239 286.174 98.76C286.135 98.7961 286.083 98.8182 286.031 98.8237C285.913 98.8346 285.804 98.8877 285.725 98.9732C285.643 99.0584 285.595 99.1704 285.592 99.2878C285.589 99.3454 285.598 99.403 285.616 99.4573C285.637 99.5116 285.667 99.5614 285.704 99.6041C285.743 99.6466 285.792 99.6812 285.843 99.7054C285.895 99.7297 285.953 99.7434 286.01 99.7458L286.963 99.767C287.02 99.7707 287.072 99.7967 287.111 99.8398C287.148 99.8826 287.169 99.939 287.163 99.996C287.16 100.053 287.136 100.106 287.09 100.144C287.048 100.182 286.993 100.201 286.935 100.198L285.986 100.177C285.871 100.18 285.755 100.156 285.649 100.109C285.543 100.062 285.449 99.9912 285.373 99.9026C285.297 99.8143 285.243 99.71 285.216 99.5981C285.185 99.4858 285.182 99.3684 285.203 99.2544Z" fill="black"/>
</g>
<path d="M277.512 91.2656C277.844 91.8211 278.346 92.2653 278.945 92.5392C279.546 92.8135 280.219 92.9046 280.873 92.8003C281.977 92.6429 282.982 92.1022 283.701 91.2794C284.421 90.457 284.805 89.4085 284.783 88.3313H284.824C285.304 88.8663 285.915 89.2778 286.601 89.5299C287.286 89.782 288.027 89.8665 288.752 89.776C289.177 89.722 289.59 89.6069 289.977 89.4343C290.83 94.1041 293.866 94.269 293.866 94.269C293.925 94.7186 294.043 95.6178 294.176 96.6878C294.275 97.4102 293.407 97.8208 293.866 98.3184L293.633 98.3483C293.773 98.5192 293.453 98.765 293.559 98.9478C293.732 99.2712 293.844 99.6213 293.891 99.9819C293.937 100.28 293.937 100.583 293.891 100.881C293.76 101.604 293.367 102.257 292.777 102.721C291.925 103.411 291.001 104.334 290.942 105.449C290.867 106.831 292.095 109.28 295.624 108.974C296.638 108.887 304.781 108.132 303.298 101.181C303.109 100.611 302.83 100.071 302.474 99.5802C302.25 99.2364 302.108 98.8498 302.055 98.4472C301.922 97.4851 302.489 96.7538 303.088 96.0854C303.429 95.744 303.686 95.3327 303.838 94.8822C303.99 94.4317 304.036 93.9536 303.971 93.4837C303.891 92.8404 303.605 92.2377 303.15 91.7611C302.697 91.2845 302.098 90.9581 301.441 90.828C301.258 90.7918 301.088 90.7048 300.951 90.5781C300.818 90.451 300.725 90.2891 300.681 90.1117C300.294 88.592 298.167 84.7854 292.514 85.7895C292.514 84.162 290.653 81.893 288.173 82.0039C286.042 82.0908 284.421 83.8173 283.407 85.262C283.121 85.6801 282.734 86.023 282.278 86.2604C281.822 86.4981 281.31 86.6225 280.793 86.6228C280.334 86.6228 279.652 86.4459 279.01 86.5239C276.529 86.8236 275.58 88.9817 276.169 91.5804L277.512 91.2656Z" fill="#21252B"/>
<path d="M293 100L293.069 96.3976C293.287 93.0779 297.322 93.2685 296.979 96.5789C296.636 99.8893 293.362 99.9355 293.362 99.9355L293 100Z" fill="#FC9D9D"/>
<path opacity="0.15" d="M295.998 95.3536C295.968 95.3908 295.926 95.4179 295.872 95.4302C295.821 95.4426 295.764 95.4391 295.717 95.4203C295.621 95.371 295.516 95.337 295.405 95.3206C295.294 95.3044 295.18 95.3058 295.069 95.3251C294.967 95.3627 294.874 95.4157 294.797 95.4814C294.722 95.5471 294.662 95.6242 294.623 95.7082C294.485 95.9711 294.431 96.2555 294.458 96.5386V96.8313C294.485 97.0692 294.059 97.0383 294.044 96.8456L294.014 96.5814C293.966 96.2371 294.038 95.8885 294.224 95.5749C294.281 95.451 294.371 95.3379 294.488 95.2439C294.608 95.1499 294.749 95.0771 294.904 95.03C295.066 94.9972 295.234 94.9912 295.396 95.0124C295.561 95.0338 295.717 95.0819 295.857 95.1538C295.905 95.1709 295.944 95.1994 295.968 95.2354C295.995 95.2713 296.004 95.3129 295.998 95.3536Z" fill="black"/>
<path d="M294.998 98.4501C294.988 98.3523 294.949 98.2596 294.889 98.1834C294.826 98.1074 294.743 98.0513 294.648 98.0222C294.554 97.9933 294.454 97.9926 294.36 98.0203C294.265 98.0479 294.18 98.103 294.117 98.1783C294.054 98.2535 294.015 98.3458 294.003 98.4433C293.993 98.5412 294.01 98.6399 294.056 98.7273C294.1 98.815 294.17 98.8873 294.255 98.9356C294.34 98.9839 294.44 99.0057 294.537 98.9987C294.67 98.9871 294.794 98.9225 294.881 98.8198C294.966 98.7169 295.01 98.5839 294.998 98.4501Z" fill="#D2B0F4"/>
<path opacity="0.15" d="M294 98.9235C294.115 98.9871 294.26 99.0126 294.397 98.9941C294.487 98.9883 294.571 98.9684 294.651 98.9354C294.728 98.9026 294.798 98.8576 294.853 98.8031C294.91 98.7486 294.952 98.6858 294.974 98.6184C295 98.5511 295.006 98.4807 294.994 98.4113C294.974 98.3268 294.936 98.2465 294.875 98.1756C294.814 98.1045 294.734 98.0447 294.641 98C294.724 98.0828 294.782 98.1807 294.804 98.2851C294.817 98.3603 294.811 98.4368 294.785 98.5099C294.756 98.5831 294.715 98.6515 294.654 98.711C294.596 98.7708 294.519 98.8206 294.436 98.8574C294.353 98.8942 294.26 98.9177 294.163 98.926C294.122 98.9033 294.058 98.9134 294 98.9235Z" fill="black"/>
<path d="M288 102.426C287.978 102.147 287.509 101.97 286.956 102.004C286.403 102.038 285.982 102.3 286.001 102.575C286.019 102.85 286.491 103.027 287.044 102.997C287.597 102.966 288 102.701 288 102.426Z" fill="white"/>
<path d="M288.002 95.4463C288.042 95.6355 288.485 95.5857 288.997 95.7201C289.51 95.8546 289.93 96.1085 289.992 95.9492C290.025 95.8745 289.955 95.6952 289.788 95.5011C289.557 95.2512 289.303 95.0939 289.042 95.0381C288.778 94.9679 288.512 94.9948 288.253 95.1178C288.084 95.2372 287.985 95.3717 288.002 95.4463Z" fill="#21252B"/>
<path d="M283.998 95.4463C283.959 95.6355 283.513 95.5857 283.003 95.7201C282.493 95.8546 282.07 96.1085 282.008 95.9492C281.975 95.8745 282.045 95.6952 282.209 95.5011C282.441 95.2517 282.695 95.0944 282.956 95.0381C283.22 94.9679 283.486 94.9948 283.745 95.1178C283.916 95.2372 284.013 95.3717 283.998 95.4463Z" fill="#21252B"/>
<path opacity="0.15" d="M227.062 155.225C227.026 155.295 227.006 155.372 227.001 155.451C226.996 155.531 227.007 155.612 227.033 155.687C227.058 155.761 227.1 155.827 227.154 155.88C227.206 155.932 227.269 155.97 227.337 155.991C227.971 156.17 229.975 153.604 230.013 153.449C230.051 153.293 232.492 152.659 232.768 152.591C233.044 152.524 234.48 152.885 234.911 153.425C234.951 153.363 234.977 153.293 234.99 153.219C235.003 153.145 235.003 153.07 234.99 152.996C234.734 152.368 233.022 151.939 232.727 152.007L230.127 152.794C230.042 152.835 229.968 152.897 229.912 152.976C229.538 153.493 227.886 155.562 227.315 155.407C227.212 155.383 227.121 155.318 227.062 155.225Z" fill="black"/>
<path opacity="0.15" d="M273.794 127L267.83 141.976C267.574 142.613 267.147 143.165 266.599 143.571C266.047 143.976 265.395 144.218 264.715 144.27L241.635 153.658L241.604 153.642C240.46 153.584 239.313 153.695 238.2 153.971C237.463 154.217 236.677 154.871 236.067 155.301C235.222 155.838 234.296 156.232 233.325 156.468C233.292 156.474 233.258 156.474 233.226 156.467C233.194 156.46 233.163 156.447 233.136 156.428C233.078 156.389 233.037 156.33 233.023 156.262C232.992 156.418 232.992 156.579 233.023 156.735C233.035 156.813 233.075 156.884 233.136 156.934C233.194 156.983 233.268 157.006 233.343 156.999C234.324 156.776 235.258 156.381 236.104 155.832C236.766 155.447 237.487 155.176 238.237 155.03C238.386 154.997 238.526 154.969 238.645 154.951L238.749 154.932C239.987 154.744 241.237 154.649 242.488 154.65L266.846 147.224C267.525 147.225 268.186 147.014 268.741 146.622C269.296 146.23 269.716 145.675 269.948 145.032L276 127.795L273.794 127Z" fill="black"/>
<path opacity="0.15" d="M307.155 262.13C306.911 259.729 303.992 231.327 301.052 220L298.007 220.303L297.529 220.354C299.876 226.31 301.299 232.562 302.205 238.926L305.45 260.147C305.694 261.764 305.403 263.417 304.623 264.843L301.639 270.269C300.867 271.673 299.726 272.821 298.347 273.578C297.602 273.987 296.816 274.298 296 274.513L298.641 276L308 263.862L307.155 262.13Z" fill="black"/>
<path d="M297.689 112.125L306.113 113.628C307.017 113.792 307.849 114.234 308.495 114.894C309.143 115.555 309.574 116.401 309.731 117.319L311 130.226L303.725 131.025V153H277.582L276.84 140.539C276.84 140.539 273.759 138.911 273.879 132.778L265 129.773L269.438 116.682C269.706 115.831 270.186 115.065 270.831 114.457C271.473 113.848 272.26 113.418 273.116 113.209L280.051 112L280.407 112.156C283.141 113.333 286.081 113.937 289.051 113.932C292.018 113.927 294.957 113.312 297.686 112.125H297.689Z" fill="#D2B0F4"/>
<path d="M292.784 275.991L295.944 274.37C297.159 274.447 298.375 274.202 299.467 273.663C300.558 273.122 301.488 272.303 302.163 271.289L307.844 262C309.442 264.676 310.935 267.483 310.807 270.629L311 278.048L310.151 278.135L308.655 270.638C308.643 270.517 308.59 270.402 308.509 270.312C308.425 270.218 308.32 270.156 308.198 270.128C308.08 270.1 307.953 270.113 307.841 270.159C307.729 270.206 307.632 270.29 307.567 270.393L303.671 276.28C302.57 277.957 300.76 278.801 298.77 279L291.842 278.935C291.718 278.947 291.59 278.928 291.472 278.882C291.357 278.835 291.254 278.757 291.174 278.661C291.093 278.564 291.04 278.446 291.015 278.325C290.99 278.2 290.996 278.073 291.034 277.951C291.32 277.005 291.948 276.461 292.784 275.991Z" fill="#D2B0F4"/>
<path d="M268.054 275.996L271.478 273.999C272.694 274.192 273.942 274.072 275.098 273.655C276.251 273.238 277.271 272.54 278.052 271.624L285.465 263C286.81 265.75 287.285 268.82 286.835 271.826L285.767 278.964H284.904L284.664 271.624C284.661 271.506 284.62 271.391 284.548 271.295C284.475 271.198 284.371 271.128 284.255 271.089C284.138 271.053 284.009 271.05 283.893 271.086C283.773 271.119 283.669 271.189 283.593 271.283L279.07 276.601C278.437 277.347 277.637 277.951 276.733 278.365C275.825 278.782 274.836 278.997 273.831 279H266.775C266.646 279 266.52 278.973 266.41 278.915C266.296 278.858 266.199 278.776 266.129 278.674C266.057 278.571 266.016 278.453 266.003 278.332C265.991 278.211 266.013 278.087 266.063 277.976C266.435 277.093 267.15 276.386 268.054 275.996Z" fill="#D2B0F4"/>
<path opacity="0.6" d="M297 152.405L296.838 152C294.318 153.02 292.841 155.688 292.79 155.776L292.877 155.73C292.577 156.366 292.368 157.041 292.257 157.736C292.032 158.84 291.819 159.888 290.549 161.17C289.278 162.453 288.239 162.683 287.148 162.898C286.057 163.113 284.913 163.361 283.552 164.729C282.192 166.096 281.967 167.24 281.755 168.359C281.542 169.479 281.32 170.507 280.044 171.793C278.767 173.079 277.736 173.306 276.643 173.521C275.717 173.657 274.83 173.995 274.045 174.51L274 175C274.974 174.244 275.825 174.068 276.718 173.884C277.814 173.657 278.95 173.421 280.313 172.068C281.677 170.716 281.898 169.554 282.111 168.438C282.324 167.321 282.549 166.29 283.822 165.004C285.095 163.718 286.129 163.491 287.223 163.276C288.317 163.061 289.458 162.813 290.819 161.461C292.179 160.108 292.404 158.949 292.616 157.83C292.793 156.94 292.967 156.094 293.686 155.134H293.635C294.48 153.924 295.646 152.979 297 152.405Z" fill="#F4F4F4"/>
<path opacity="0.2" d="M304 131.104L303.346 131.229L302.595 123L302 153L304 152.89V131.104Z" fill="black"/>
<path d="M311.977 143.376L310.87 129.917L303.236 130.667L303.853 136.069L295.104 128.333C294.655 127.171 295.29 126.351 294.989 124.308C294.619 122.589 293.511 119.805 293.511 119.805C291.787 118.554 293.511 123.308 293.051 123.418C291.245 123.849 289.078 116.303 287.847 117.052C287.052 117.536 288.689 118.854 289.565 121.983L289.297 122.176C289.349 122.405 287.582 120.035 286.522 118.306C285.788 117.123 285.478 118.001 285.508 118.49C285.538 118.979 286.685 120.805 287.205 121.668C287.555 122.234 287.922 122.821 288.142 123.17L287.907 123.54C286.125 121.806 285.129 119.469 284.4 119.805C283.47 120.952 286.507 123.672 287.248 124.8C285.255 124.017 285.141 122.047 284.153 122.558C283.551 122.864 284.864 124.455 285.631 125.311C287.738 126.645 289.035 129.202 290.598 130.086L292.774 132.817L303.366 146.848C304.398 147.93 305.732 148.667 307.185 148.958C308.955 149.215 310.439 148.27 311.204 146.627L311.544 145.896C311.911 145.112 312.061 144.241 311.977 143.376Z" fill="#FC9D9D"/>
<path opacity="0.15" d="M304.075 136.05L308 140L304 134L304.075 136.05Z" fill="black"/>
<path opacity="0.2" d="M274.31 133L275.874 125.83C276.414 122.076 275.05 125.222 274.944 125.464L272 131.975L274.31 133Z" fill="black"/>
<path opacity="0.1" d="M277 140.188C279.458 140.632 282.02 140.632 284.478 140.188C284.478 140.188 286.251 140 287.434 140.188C287.434 140.188 293.047 140.937 296 140C296 140 293.897 141.501 287.383 140.749C286.419 140.641 285.442 140.641 284.478 140.749C284.478 140.749 279.533 141.313 277.093 140.749L277 140.188Z" fill="black"/>
<path opacity="0.3" d="M302 152C302.13 152.332 307.994 166.848 304.173 186.957C304.173 186.957 301.997 201.294 302.482 208.839V220.874L306.642 221L306.737 220.367C306.441 215.585 306.491 202.453 308.159 190.179C311.323 166.906 304.54 152 304.54 152H302Z" fill="black"/>
<path opacity="0.6" d="M305.225 160.481C305.225 160.218 305.225 159.877 305.225 159.557C305.225 158.1 305.225 158.1 305.095 158.048L304.981 158L304.892 158.085C302.783 160.073 302.403 161.775 302.036 163.42C301.668 165.065 301.316 166.655 299.303 168.569C297.29 170.482 295.678 170.79 293.971 171.11C292.263 171.43 290.537 171.753 288.441 173.747C286.345 175.742 285.971 177.438 285.6 179.077C285.23 180.716 284.878 182.306 282.865 184.208C280.852 186.109 279.237 186.429 277.529 186.749C276.118 187.014 274.664 187.289 273 188.541C273 188.692 273 188.843 273 189C274.677 187.657 276.088 187.391 277.588 187.111C279.277 186.809 281.018 186.468 283.115 184.473C285.211 182.478 285.585 180.782 285.959 179.143C286.332 177.505 286.681 175.914 288.694 174.013C290.707 172.112 292.322 171.792 294.029 171.472C295.737 171.152 297.46 170.829 299.556 168.834C301.653 166.839 302.026 165.143 302.394 163.502C302.743 161.923 303.076 160.429 304.83 158.655C304.83 158.914 304.83 159.258 304.83 159.56C304.83 160.976 304.83 160.976 304.901 161.039C304.913 161.053 304.926 161.065 304.941 161.075L304.978 161.114C305.046 161.178 305.08 161.211 305.256 161.078C305.268 161.06 305.284 161.043 305.302 161.027C305.441 160.909 305.657 160.704 306 160.372L305.836 159.856L305.225 160.481Z" fill="#F4F4F4"/>
<path opacity="0.6" d="M307.94 168.777C307.752 168.964 307.525 169.197 307.235 169.493C306.89 169.845 306.491 170.252 306.225 170.519C306.225 170.249 306.225 169.907 306.225 169.579C306.225 168.101 306.225 168.101 306.098 168.049L305.986 168L305.895 168.086C303.83 170.106 303.461 171.829 303.101 173.5C302.742 175.171 302.394 176.777 300.425 178.702C298.457 180.627 296.872 180.955 295.2 181.279C293.528 181.604 291.841 181.931 289.787 183.954C287.734 185.977 287.368 187.697 287.006 189.362C286.643 191.027 286.298 192.634 284.326 194.565C282.355 196.496 280.773 196.814 279.101 197.138C277.535 197.445 275.914 197.751 274 199.52C274 199.679 274.021 199.826 274.033 200C275.966 198.133 277.523 197.827 279.174 197.509C280.825 197.191 282.533 196.857 284.586 194.831C286.64 192.805 287.006 191.088 287.371 189.426C287.737 187.764 288.076 186.155 290.051 184.223C292.025 182.292 293.604 181.971 295.273 181.647C296.942 181.322 298.635 180.995 300.688 178.972C302.742 176.949 303.107 175.229 303.464 173.564C303.809 171.966 304.136 170.451 305.853 168.649C305.853 168.912 305.853 169.261 305.853 169.567C305.853 171.002 305.853 171.002 305.926 171.067C305.938 171.081 305.95 171.094 305.965 171.103L306.001 171.143C306.068 171.207 306.101 171.244 306.273 171.106L306.319 171.051C306.521 170.877 306.881 170.51 307.574 169.806L308 169.371C307.985 169.187 307.961 168.982 307.94 168.777Z" fill="#F4F4F4"/>
<path opacity="0.6" d="M307.857 185.464C307.508 185.813 307.107 186.213 306.843 186.472C306.843 186.21 306.843 185.87 306.843 185.552C306.843 184.099 306.843 184.099 306.715 184.048L306.603 184L306.515 184.084C304.441 186.066 304.067 187.761 303.706 189.4C303.345 191.039 302.999 192.623 301.022 194.53C299.045 196.436 297.453 196.743 295.774 197.061C294.095 197.38 292.4 197.702 290.338 199.689C288.277 201.677 287.909 203.367 287.542 204.999C287.174 206.632 286.831 208.217 284.851 210.126C282.871 212.035 281.283 212.339 279.604 212.658C278.173 212.928 276.701 213.211 275 214.558C275.015 214.705 275.03 214.859 275.043 215C276.746 213.578 278.173 213.304 279.674 213.019C281.335 212.718 283.05 212.378 285.109 210.391C287.168 208.403 287.539 206.713 287.906 205.081C288.273 203.448 288.617 201.863 290.597 199.969C292.577 198.075 294.165 197.756 295.844 197.437C297.523 197.119 299.218 196.797 301.28 194.809C303.342 192.822 303.709 191.132 304.07 189.496C304.417 187.924 304.742 186.436 306.466 184.668C306.466 184.926 306.466 185.269 306.466 185.57C306.466 186.98 306.466 186.98 306.536 187.043L306.576 187.079L306.612 187.118C306.679 187.181 306.715 187.214 306.886 187.082L306.931 187.031C307.11 186.881 307.405 186.589 307.936 186.063L308 185.32L307.857 185.464Z" fill="#F4F4F4"/>
<path opacity="0.6" d="M303.23 207.791C301.572 208.104 299.855 208.425 297.793 210.392C295.731 212.359 295.363 214.034 294.996 215.65C294.692 217.072 294.388 218.426 293 220H293.471C294.75 218.441 295.059 217.06 295.36 215.715C295.725 214.079 296.071 212.534 298.051 210.642C300.032 208.75 301.62 208.455 303.3 208.14C304.226 207.997 305.131 207.75 306 207.402C306 207.268 306 207.134 306 207C305.116 207.38 304.184 207.646 303.23 207.791Z" fill="#F4F4F4"/>
<path opacity="0.15" d="M307.446 148.958C309.198 149.214 310.666 148.273 311.422 146.636L311.759 145.908C311.854 145.702 311.934 145.488 312 145.268C309.4 149.23 305.668 145.268 305.668 145.268L291.671 129.424C291.263 129.284 290.414 128.51 289.616 127.699C288.252 126.322 286.742 125.106 285.113 124.073L285 124C285.345 124.49 285.718 124.958 286.12 125.402C288.205 126.73 289.488 129.277 291.034 130.158L293.187 132.879L303.667 146.856C304.689 147.935 306.005 148.668 307.446 148.958Z" fill="black"/>
<path d="M40 213L38 267" stroke="#21252B" stroke-width="0.93" stroke-miterlimit="10" stroke-linecap="round"/>
<path d="M24 236L34 248" stroke="#21252B" stroke-width="0.93" stroke-miterlimit="10" stroke-linecap="round"/>
<path d="M47 250L38 263" stroke="#21252B" stroke-width="0.93" stroke-miterlimit="10" stroke-linecap="round"/>
<path d="M51 228L39 241" stroke="#21252B" stroke-width="0.93" stroke-miterlimit="10" stroke-linecap="round"/>
<path d="M50.187 235.179C52.993 231.918 53.8434 228.063 52.0826 226.58C50.3218 225.098 46.6205 226.556 43.8116 229.818C41.0026 233.08 40.1581 236.935 41.919 238.417C43.6798 239.9 47.3811 238.456 50.187 235.188" fill="#D2B0F4"/>
<g opacity="0.3">
<g opacity="0.3">
<path opacity="0.3" d="M52.3121 226.394L41.8473 238.309C41.8867 238.309 41.8867 238.348 41.9231 238.348C43.7188 239.865 47.4619 238.387 50.2859 235.063C53.0765 231.817 53.9531 227.999 52.3121 226.394Z" fill="black"/>
</g>
</g>
<path d="M30.2863 243.534C31.6278 242.311 31.0234 239.068 28.933 236.289C26.8427 233.51 24.0594 232.245 22.715 233.464C21.3706 234.684 21.9779 237.933 24.0683 240.712C26.1586 243.492 28.9419 244.756 30.2863 243.534Z" fill="#D2B0F4"/>
<g opacity="0.3">
<g opacity="0.3">
<path opacity="0.3" d="M22.2554 233.765L30.1601 243.047L30.1237 243.083C28.7466 244.23 25.8772 243.047 23.7053 240.447C21.6457 237.927 20.9936 234.948 22.2554 233.774" fill="black"/>
</g>
</g>
<path d="M26 252L36 260" stroke="#21252B" stroke-width="0.93" stroke-miterlimit="10" stroke-linecap="round"/>
<path d="M32.6002 257.25C33.6807 255.874 32.4947 253.079 29.9648 251.012C27.4349 248.944 24.4803 248.375 23.3998 249.751C22.3193 251.128 23.5053 253.922 26.0352 255.99C28.5651 258.057 31.5167 258.623 32.5972 257.25" fill="#D2B0F4"/>
<g opacity="0.3">
<g opacity="0.3">
<path opacity="0.3" d="M23.2112 249.653L32.8358 257.136L32.7963 257.175C31.6892 258.589 28.6347 258.016 25.9988 255.914C23.4387 253.854 22.2163 251.06 23.2112 249.653Z" fill="black"/>
</g>
</g>
<path d="M43.9851 217.19C44.174 212.772 42.5463 209.106 40.343 209.002C38.1397 208.898 36.2039 212.393 36.0149 216.81C35.826 221.228 37.4508 224.894 39.6541 224.998C41.8574 225.102 43.7932 221.607 43.9851 217.19Z" fill="#D2B0F4"/>
<g opacity="0.3">
<g opacity="0.3">
<path opacity="0.3" d="M35.8499 216.733C36.041 212.377 38.0642 208.901 40.3573 209.016L39.6324 224.865C37.3392 224.714 35.6588 221.086 35.8499 216.733Z" fill="black"/>
</g>
</g>
<path d="M47.4433 255.003C49.3209 251.881 49.5329 248.454 47.9 247.346C46.2672 246.239 43.4224 247.876 41.5537 250.998C39.685 254.121 39.4641 257.551 41.097 258.655C42.7298 259.759 45.5746 258.125 47.4433 255.003Z" fill="#D2B0F4"/>
<g opacity="0.3">
<g opacity="0.3">
<path opacity="0.3" d="M41.8083 251.027C39.9367 253.93 39.7092 257.139 41.235 258.246L48.2267 247.551L47.805 247.359C46.164 246.753 43.5585 248.269 41.8083 251.027Z" fill="black"/>
</g>
</g>
<path d="M37 266L31 229" stroke="#21252B" stroke-width="0.93" stroke-miterlimit="10" stroke-linecap="round"/>
<path d="M31.5206 233.975C33.3692 233.651 34.4102 230.267 33.8471 226.415C33.284 222.563 31.3255 219.704 29.4769 220.025C27.6283 220.346 26.59 223.733 27.1531 227.585C27.7162 231.437 29.6747 234.299 31.5206 233.975Z" fill="#D2B0F4"/>
<g opacity="0.3">
<g opacity="0.3">
<path opacity="0.3" d="M26.7995 227.768C26.1929 223.874 27.3364 220.437 29.3596 220.094L31.6224 234.223C29.5962 234.605 27.4213 231.702 26.8086 227.768" fill="black"/>
</g>
</g>
<path d="M34.4467 278.994H41.5927C41.909 278.994 42.2226 278.933 42.5152 278.81C42.8079 278.691 43.0738 278.51 43.2975 278.286C43.5213 278.06 43.6985 277.79 43.8191 277.496C43.9396 277.202 44.0012 276.884 44 276.565V267H32V276.571C32.0124 277.217 32.2756 277.833 32.7328 278.289C33.19 278.743 33.8053 278.997 34.4467 279" fill="#868A91"/>
<path d="M44.3427 266H31.6573C31.4831 266 31.3157 266.054 31.1926 266.147C31.0694 266.241 31 266.367 31 266.5C31 266.633 31.0694 266.759 31.1926 266.853C31.3157 266.946 31.4831 267 31.6573 267H44.3427C44.4293 267 44.515 266.988 44.5951 266.963C44.6753 266.939 44.7481 266.902 44.8092 266.855C44.8707 266.808 44.9189 266.752 44.9517 266.692C44.9843 266.631 45.0009 266.565 45 266.5C44.9886 266.369 44.9155 266.248 44.7948 266.157C44.6738 266.063 44.5131 266.009 44.3427 266Z" fill="#868A91"/>
<path d="M44 267.285H33.0012C32.8276 267.285 32.6614 267.216 32.5389 267.096C32.4161 266.976 32.3474 266.813 32.3474 266.642C32.3474 266.471 32.4161 266.309 32.5389 266.189C32.6614 266.066 32.8276 266 33.0012 266H31.6538C31.4803 266 31.3141 266.066 31.1916 266.189C31.0687 266.309 31 266.471 31 266.642C31 266.813 31.0687 266.976 31.1916 267.096C31.3141 267.216 31.4803 267.285 31.6538 267.285H31.9257V276.62C31.9242 276.932 31.9856 277.244 32.1069 277.532C32.2279 277.82 32.4063 278.084 32.6318 278.307C32.857 278.529 33.1246 278.703 33.4194 278.823C33.7143 278.94 34.0299 279 34.3485 279H38.2684C37.4398 279.003 36.636 278.721 35.9965 278.205C35.3568 277.688 34.922 276.965 34.7671 276.166L33.0378 267.438H44V267.285Z" fill="#61656D"/>
<path d="M271 79.0769C271 72.96 265.178 68 258 68C250.822 68 245 72.96 245 79.0769C245 85.1938 250.822 90.1538 258 90.1538C259.384 90.1557 260.761 89.9652 262.097 89.5877L267.713 92L265.833 87.9169C268.971 85.8923 271 82.6862 271 79.0769Z" fill="white" stroke="#B2B6BB" stroke-width="2" stroke-miterlimit="10"/>
<path d="M261.49 75.5194C261.085 74.8885 260.427 74.4243 259.658 74.2227C257.868 73.7757 255.88 73.9918 254.91 74.9599C253.752 75.7355 253.558 77.6806 255.16 77.6806C256.152 77.6806 256.402 75.8658 258.328 76.2921C258.5 76.3425 258.656 76.4333 258.779 76.5559C258.902 76.6785 258.99 76.8286 259.029 76.9908C259.353 78.0566 257.842 78.7997 256.778 79.9513C256.61 80.1319 256.502 80.3531 256.467 80.5884C256.431 80.8235 256.47 81.063 256.58 81.2782C256.687 81.4938 256.862 81.6761 257.083 81.804C257.3 81.9319 257.556 82 257.816 82C258.088 81.9991 258.354 81.9298 258.588 81.799C258.818 81.6684 259.006 81.4819 259.129 81.2599C260.073 79.5339 263.219 78.1484 261.49 75.5194Z" fill="#B2B6BB"/>
<path d="M257.797 83.0294C257.479 82.9659 257.152 83.0059 256.86 83.1428C256.572 83.28 256.33 83.5069 256.179 83.7906C256.025 84.0742 255.97 84.3994 256.016 84.7177C256.065 85.0361 256.212 85.3312 256.438 85.5591C256.667 85.7871 256.962 85.9357 257.279 85.9836C257.597 86.031 257.921 85.975 258.206 85.8237C258.491 85.6721 258.717 85.4333 258.854 85.1425C258.992 84.8517 259.034 84.5242 258.972 84.2085C258.913 83.918 258.772 83.6511 258.563 83.4411C258.353 83.2315 258.085 83.0881 257.797 83.0294Z" fill="#B2B6BB"/>
<path d="M305.287 86C305.235 86.0003 305.184 85.9863 305.141 85.9595C305.095 85.9324 305.058 85.8939 305.035 85.8475C305.009 85.8011 304.998 85.7486 305 85.6959C305 85.6434 305.018 85.592 305.046 85.548L310.472 77.1324C310.515 77.0674 310.578 77.0222 310.652 77.0061C310.729 76.9904 310.807 77.0053 310.87 77.0478C310.933 77.0904 310.979 77.1569 310.993 77.233C311.01 77.3091 310.996 77.3881 310.953 77.4531L305.525 85.8688C305.499 85.909 305.464 85.942 305.422 85.9647C305.381 85.9878 305.333 85.9997 305.287 86Z" fill="#868A91"/>
<path d="M319.668 95.9994H319.625L308.269 94.5605C308.229 94.5552 308.189 94.5429 308.155 94.5243C308.118 94.5056 308.087 94.4808 308.062 94.4512C308.037 94.4216 308.022 94.3882 308.009 94.3522C308 94.3165 307.997 94.2792 308.003 94.2426C308.009 94.2061 308.022 94.1707 308.043 94.1389C308.065 94.1071 308.093 94.0792 308.124 94.0569C308.158 94.0346 308.195 94.0184 308.235 94.009C308.272 93.9998 308.316 93.9975 308.356 94.0028L319.712 95.4417C319.792 95.4467 319.869 95.4813 319.925 95.537C319.978 95.5931 320.005 95.6661 319.999 95.74C319.993 95.8139 319.956 95.8828 319.894 95.9313C319.832 95.9801 319.749 96.0044 319.668 95.9994Z" fill="#868A91"/>
<path d="M309.319 88.9996C309.252 89.0029 309.185 88.9842 309.13 88.9464C309.076 88.9087 309.036 88.8542 309.015 88.7911C308.99 88.7152 308.997 88.6327 309.03 88.5614C309.067 88.49 309.13 88.4356 309.206 88.4103L322.591 84.0187C322.631 84.0045 322.67 83.9985 322.71 84.0003C322.753 84.0024 322.792 84.0127 322.829 84.0302C322.865 84.0481 322.899 84.0728 322.926 84.1037C322.953 84.1342 322.972 84.1699 322.987 84.2086C322.999 84.2472 323.002 84.288 322.999 84.3285C322.996 84.369 322.984 84.4083 322.965 84.4443C322.944 84.48 322.92 84.5117 322.886 84.5374C322.856 84.5628 322.819 84.5818 322.78 84.593L309.395 88.9845C309.371 88.9924 309.343 88.9975 309.319 88.9996Z" fill="#868A91"/>
<g opacity="0.3">
<path opacity="0.3" d="M208.158 132.809C208.087 132.81 208.018 132.787 207.963 132.743C207.908 132.7 207.869 132.638 207.854 132.569L192.688 62.5003C192.671 62.42 192.687 62.3362 192.732 62.2674C192.777 62.1985 192.847 62.1503 192.928 62.1333C193.008 62.1166 193.092 62.1324 193.161 62.1773C193.23 62.2222 193.278 62.2926 193.295 62.373L208.461 132.442C208.469 132.481 208.47 132.521 208.463 132.56C208.456 132.6 208.441 132.637 208.419 132.671C208.398 132.704 208.369 132.733 208.337 132.756C208.303 132.779 208.266 132.794 208.227 132.802L208.158 132.809Z" fill="white"/>
</g>
<g opacity="0.3">
<path opacity="0.3" d="M165.692 132.809H165.628C165.589 132.8 165.552 132.784 165.519 132.762C165.486 132.739 165.458 132.71 165.437 132.677C165.415 132.643 165.4 132.606 165.393 132.566C165.386 132.527 165.386 132.487 165.395 132.448L180.561 62.3791C180.569 62.3394 180.586 62.3014 180.609 62.2678C180.632 62.2341 180.661 62.2056 180.695 62.1831C180.729 62.161 180.767 62.1455 180.807 62.1382C180.847 62.1307 180.888 62.131 180.928 62.1395C180.968 62.1477 181.006 62.164 181.039 62.1868C181.073 62.2098 181.102 62.2393 181.124 62.2732C181.146 62.3075 181.161 62.3454 181.169 62.3855C181.177 62.4255 181.176 62.4668 181.168 62.5065L166.001 132.575C165.985 132.644 165.945 132.705 165.889 132.748C165.833 132.79 165.763 132.812 165.692 132.809Z" fill="white"/>
</g>
<path d="M293.5 34C293.633 34 293.76 33.9473 293.853 33.8533C293.947 33.7597 294 33.6327 294 33.5C294 33.3673 293.947 33.24 293.853 33.1463C293.76 33.0527 293.633 33 293.5 33C293.367 33 293.24 33.0527 293.147 33.1463C293.053 33.24 293 33.3673 293 33.5C293 33.6327 293.053 33.7597 293.147 33.8533C293.24 33.9473 293.367 34 293.5 34Z" fill="white"/>
</svg>
